<?xml version="1.0" encoding="UTF-8"?>
<!DOCTYPE svg PUBLIC "-//W3C//DTD SVG 1.1//EN" "http://www.w3.org/Graphics/SVG/1.1/DTD/svg11.dtd">
<svg xmlns="http://www.w3.org/2000/svg" version="1.1" width="1440px" height="109px" style="shape-rendering:geometricPrecision; text-rendering:geometricPrecision; image-rendering:optimizeQuality; fill-rule:evenodd; clip-rule:evenodd" xmlns:xlink="http://www.w3.org/1999/xlink">
<g><path style="opacity:1" fill="#c40411" d="M -0.5,-0.5 C 0.5,-0.5 1.5,-0.5 2.5,-0.5C 1.7888,12.031 1.45547,25.031 1.5,38.5C 1.35872,43.9068 3.85872,47.2401 9,48.5C 233.652,47.5279 458.319,47.1946 683,47.5C 694.338,46.2443 704.005,49.5777 712,57.5C 719.667,66.8333 727.333,76.1667 735,85.5C 737.913,88.0874 741.08,90.254 744.5,92C 972.167,92.6667 1199.83,92.6667 1427.5,92C 1428.33,91.1667 1429.17,90.3333 1430,89.5C 1430.5,59.5019 1430.67,29.5019 1430.5,-0.5C 1431.17,-0.5 1431.83,-0.5 1432.5,-0.5C 1432.92,27.4228 1433.25,55.2562 1433.5,83C 1434.03,89.3011 1431.36,93.3011 1425.5,95C 1199.5,95.6667 973.5,95.6667 747.5,95C 743.27,94.4828 739.603,92.8162 736.5,90C 727.07,78.4807 717.404,67.1474 707.5,56C 704.211,53.5224 700.544,51.8558 696.5,51C 466.5,50.6667 236.5,50.3333 6.5,50C 2.98529,48.9817 0.651961,46.8151 -0.5,43.5C -0.5,28.8333 -0.5,14.1667 -0.5,-0.5 Z"/></g>
<g><path style="opacity:1" fill="#cb0411" d="M 2.5,-0.5 C 4.16667,-0.5 5.83333,-0.5 7.5,-0.5C 6.51777,13.7548 6.18444,28.0882 6.5,42.5C 192.182,43.2604 377.682,43.2604 563,42.5C 608.429,43.3306 653.929,43.8306 699.5,44C 702.79,44.2532 705.79,45.2532 708.5,47C 712,50.5 715.5,54 719,57.5C 726.782,67.9489 735.282,77.7822 744.5,87C 746.764,87.2362 748.931,87.7362 751,88.5C 974.668,87.3896 1199,87.3896 1424,88.5C 1425.15,79.417 1425.99,70.2503 1426.5,61C 1425.83,40.5001 1425.16,20.0001 1424.5,-0.5C 1426.5,-0.5 1428.5,-0.5 1430.5,-0.5C 1430.67,29.5019 1430.5,59.5019 1430,89.5C 1429.17,90.3333 1428.33,91.1667 1427.5,92C 1199.83,92.6667 972.167,92.6667 744.5,92C 741.08,90.254 737.913,88.0874 735,85.5C 727.333,76.1667 719.667,66.8333 712,57.5C 704.005,49.5777 694.338,46.2443 683,47.5C 458.319,47.1946 233.652,47.5279 9,48.5C 3.85872,47.2401 1.35872,43.9068 1.5,38.5C 1.45547,25.031 1.7888,12.031 2.5,-0.5 Z"/></g>
<g><path style="opacity:1" fill="#cf0411" d="M 7.5,-0.5 C 479.833,-0.5 952.167,-0.5 1424.5,-0.5C 1425.16,20.0001 1425.83,40.5001 1426.5,61C 1425.99,70.2503 1425.15,79.417 1424,88.5C 1199,87.3896 974.668,87.3896 751,88.5C 748.931,87.7362 746.764,87.2362 744.5,87C 735.282,77.7822 726.782,67.9489 719,57.5C 715.5,54 712,50.5 708.5,47C 705.79,45.2532 702.79,44.2532 699.5,44C 653.929,43.8306 608.429,43.3306 563,42.5C 377.682,43.2604 192.182,43.2604 6.5,42.5C 6.18444,28.0882 6.51777,13.7548 7.5,-0.5 Z"/></g>
<g><path style="opacity:1" fill="#be0410" d="M 1432.5,-0.5 C 1433.17,-0.5 1433.83,-0.5 1434.5,-0.5C 1434.67,30.1685 1434.5,60.8351 1434,91.5C 1433.53,92.9308 1432.7,94.0975 1431.5,95C 1428.37,95.96 1425.2,96.7933 1422,97.5C 1197.55,96.7158 973.549,96.7158 750,97.5C 745.995,96.9722 742.161,95.8055 738.5,94C 727.167,81.3333 715.833,68.6667 704.5,56C 702.283,54.7246 699.949,53.7246 697.5,53C 467.167,52.6667 236.833,52.3333 6.5,52C 3.59578,51.8672 1.26244,50.7005 -0.5,48.5C -0.5,46.8333 -0.5,45.1667 -0.5,43.5C 0.651961,46.8151 2.98529,48.9817 6.5,50C 236.5,50.3333 466.5,50.6667 696.5,51C 700.544,51.8558 704.211,53.5224 707.5,56C 717.404,67.1474 727.07,78.4807 736.5,90C 739.603,92.8162 743.27,94.4828 747.5,95C 973.5,95.6667 1199.5,95.6667 1425.5,95C 1431.36,93.3011 1434.03,89.3011 1433.5,83C 1433.25,55.2562 1432.92,27.4228 1432.5,-0.5 Z"/></g>
<g><path style="opacity:1" fill="#b80310" d="M 1434.5,-0.5 C 1435.17,-0.5 1435.83,-0.5 1436.5,-0.5C 1436.67,29.8352 1436.5,60.1685 1436,90.5C 1434.83,94.3333 1432.33,96.8333 1428.5,98C 1200.17,98.6667 971.833,98.6667 743.5,98C 737.488,94.9993 732.322,90.8327 728,85.5C 720.5,76.6667 713,67.8333 705.5,59C 703.33,57.4138 700.996,56.0804 698.5,55C 694.113,54.774 689.779,54.274 685.5,53.5C 461.25,54.3357 236.416,54.669 11,54.5C 6.98474,54.0034 3.15141,53.0034 -0.5,51.5C -0.5,50.5 -0.5,49.5 -0.5,48.5C 1.26244,50.7005 3.59578,51.8672 6.5,52C 236.833,52.3333 467.167,52.6667 697.5,53C 699.949,53.7246 702.283,54.7246 704.5,56C 715.833,68.6667 727.167,81.3333 738.5,94C 742.161,95.8055 745.995,96.9722 750,97.5C 973.549,96.7158 1197.55,96.7158 1422,97.5C 1425.2,96.7933 1428.37,95.96 1431.5,95C 1432.7,94.0975 1433.53,92.9308 1434,91.5C 1434.5,60.8351 1434.67,30.1685 1434.5,-0.5 Z"/></g>
<g><path style="opacity:1" fill="#b2030f" d="M 1436.5,-0.5 C 1437.17,-0.5 1437.83,-0.5 1438.5,-0.5C 1438.67,29.8352 1438.5,60.1685 1438,90.5C 1437.62,95.8758 1434.79,99.0425 1429.5,100C 1200.83,100.667 972.167,100.667 743.5,100C 741.051,99.2754 738.717,98.2754 736.5,97C 725.167,84.3333 713.833,71.6667 702.5,59C 699.352,57.3953 696.019,56.3953 692.5,56C 461.473,55.8304 230.473,55.3304 -0.5,54.5C -0.5,53.5 -0.5,52.5 -0.5,51.5C 3.15141,53.0034 6.98474,54.0034 11,54.5C 236.416,54.669 461.25,54.3357 685.5,53.5C 689.779,54.274 694.113,54.774 698.5,55C 700.996,56.0804 703.33,57.4138 705.5,59C 713,67.8333 720.5,76.6667 728,85.5C 732.322,90.8327 737.488,94.9993 743.5,98C 971.833,98.6667 1200.17,98.6667 1428.5,98C 1432.33,96.8333 1434.83,94.3333 1436,90.5C 1436.5,60.1685 1436.67,29.8352 1436.5,-0.5 Z"/></g>
<g><path style="opacity:0.997" fill="#ab020f" d="M 1438.5,-0.5 C 1438.83,-0.5 1439.17,-0.5 1439.5,-0.5C 1439.5,31.1667 1439.5,62.8333 1439.5,94.5C 1437.33,98.939 1433.66,101.439 1428.5,102C 1200.5,102.667 972.5,102.667 744.5,102C 740.379,100.771 736.379,99.2708 732.5,97.5C 723.196,86.525 713.863,75.525 704.5,64.5C 702.35,60.5871 699.016,58.4204 694.5,58C 462.806,57.8304 231.139,57.3304 -0.5,56.5C -0.5,55.8333 -0.5,55.1667 -0.5,54.5C 230.473,55.3304 461.473,55.8304 692.5,56C 696.019,56.3953 699.352,57.3953 702.5,59C 713.833,71.6667 725.167,84.3333 736.5,97C 738.717,98.2754 741.051,99.2754 743.5,100C 972.167,100.667 1200.83,100.667 1429.5,100C 1434.79,99.0425 1437.62,95.8758 1438,90.5C 1438.5,60.1685 1438.67,29.8352 1438.5,-0.5 Z"/></g>
<g><path style="opacity:0.999" fill="#a5020e" d="M -0.5,56.5 C 231.139,57.3304 462.806,57.8304 694.5,58C 699.016,58.4204 702.35,60.5871 704.5,64.5C 702.833,64.5 701.167,64.5 699.5,64.5C 699.611,63.8826 699.944,63.3826 700.5,63C 699.167,62.3333 697.833,61.6667 696.5,61C 692.247,60.8002 688.08,60.3002 684,59.5C 460.316,59.9881 236.649,60.3214 13,60.5C 8.34802,60.56 3.84802,59.8934 -0.5,58.5C -0.5,57.8333 -0.5,57.1667 -0.5,56.5 Z"/></g>
<g><path style="opacity:0.877" fill="#9e020e" d="M -0.5,58.5 C 3.84802,59.8934 8.34802,60.56 13,60.5C 236.649,60.3214 460.316,59.9881 684,59.5C 688.08,60.3002 692.247,60.8002 696.5,61C 697.833,61.6667 699.167,62.3333 700.5,63C 699.944,63.3826 699.611,63.8826 699.5,64.5C 466.167,64.5 232.833,64.5 -0.5,64.5C -0.5,62.5 -0.5,60.5 -0.5,58.5 Z"/></g>
<g><path style="opacity:1" fill="#a5020e" d="M 1439.5,94.5 C 1439.5,96.1667 1439.5,97.8333 1439.5,99.5C 1437.32,101.762 1434.65,103.262 1431.5,104C 1201.83,104.667 972.167,104.667 742.5,104C 740.846,103.392 739.179,102.892 737.5,102.5C 735.5,101.167 733.833,99.5 732.5,97.5C 736.379,99.2708 740.379,100.771 744.5,102C 972.5,102.667 1200.5,102.667 1428.5,102C 1433.66,101.439 1437.33,98.939 1439.5,94.5 Z"/></g>
<g><path style="opacity:0.999" fill="#9f020e" d="M 1439.5,99.5 C 1439.5,102.5 1439.5,105.5 1439.5,108.5C 1206.83,108.5 974.167,108.5 741.5,108.5C 739.748,106.754 738.415,104.754 737.5,102.5C 739.179,102.892 740.846,103.392 742.5,104C 972.167,104.667 1201.83,104.667 1431.5,104C 1434.65,103.262 1437.32,101.762 1439.5,99.5 Z"/></g>
</svg>
