<?xml version="1.0" encoding="UTF-8"?>
<!DOCTYPE svg PUBLIC "-//W3C//DTD SVG 1.1//EN" "http://www.w3.org/Graphics/SVG/1.1/DTD/svg11.dtd">
<svg xmlns="http://www.w3.org/2000/svg" version="1.1" width="1440px" height="325px" style="shape-rendering:geometricPrecision; text-rendering:geometricPrecision; image-rendering:optimizeQuality; fill-rule:evenodd; clip-rule:evenodd" xmlns:xlink="http://www.w3.org/1999/xlink">
<g><path style="opacity:1" fill="#cf0411" d="M 1272.5,-0.5 C 1275.83,-0.5 1279.17,-0.5 1282.5,-0.5C 1322.57,3.13274 1360.24,14.9661 1395.5,35C 1410.6,43.6263 1425.27,52.793 1439.5,62.5C 1439.5,229.833 1439.5,397.167 1439.5,564.5C 959.5,564.5 479.5,564.5 -0.5,564.5C -0.5,430.833 -0.5,297.167 -0.5,163.5C 39.1152,138.01 82.1152,129.51 128.5,138C 142.756,141.529 156.089,147.195 168.5,155C 188.566,171.038 210.232,184.705 233.5,196C 270.644,211.83 309.311,217.497 349.5,213C 361.244,211.876 372.911,210.209 384.5,208C 408.449,203.077 432.449,198.41 456.5,194C 476.25,190.337 495.917,190.671 515.5,195C 527.062,199.114 538.395,203.781 549.5,209C 585.894,220.434 622.228,220.1 658.5,208C 680.475,200.898 701.808,192.231 722.5,182C 754.854,164.822 787.521,148.156 820.5,132C 842.627,121.291 865.627,112.957 889.5,107C 909.318,103.245 929.318,101.412 949.5,101.5C 987.485,103.456 1025.48,104.622 1063.5,105C 1086.78,104.733 1109.11,100.066 1130.5,91C 1142.73,85.1027 1153.56,77.2694 1163,67.5C 1170,58.5 1177,49.5 1184,40.5C 1208.03,14.9909 1237.53,1.32418 1272.5,-0.5 Z"/></g>
</svg>
