<?xml version="1.0" encoding="UTF-8"?>
<!DOCTYPE svg PUBLIC "-//W3C//DTD SVG 1.1//EN" "http://www.w3.org/Graphics/SVG/1.1/DTD/svg11.dtd">
<svg xmlns="http://www.w3.org/2000/svg" version="1.1" width="1440px" height="486px" style="shape-rendering:geometricPrecision; text-rendering:geometricPrecision; image-rendering:optimizeQuality; fill-rule:evenodd; clip-rule:evenodd" xmlns:xlink="http://www.w3.org/1999/xlink">
<g><path style="opacity:0.999" fill="#d8d8d8" d="M 1437.5,-0.5 C 1438.17,-0.5 1438.83,-0.5 1439.5,-0.5C 1439.5,261.5 1439.5,523.5 1439.5,785.5C 959.5,785.5 479.5,785.5 -0.5,785.5C -0.5,551.167 -0.5,316.833 -0.5,82.5C 62.8507,91.7842 123.184,110.618 180.5,139C 197.325,148.829 213.325,159.829 228.5,172C 248.469,190.301 268.136,208.968 287.5,228C 303.578,243.068 321.578,255.401 341.5,265C 385.4,284.786 428.066,282.452 469.5,258C 490.179,244.656 511.513,232.323 533.5,221C 577.759,203.029 620.425,206.363 661.5,231C 683.23,245.202 705.896,257.868 729.5,269C 772.665,283.646 813.665,278.98 852.5,255C 871.392,242.468 891.059,231.135 911.5,221C 933.824,211.368 957.158,206.535 981.5,206.5C 1003.61,207.531 1025.61,209.697 1047.5,213C 1072.97,215.794 1097.97,213.461 1122.5,206C 1166.97,193.603 1206.64,172.603 1241.5,143C 1258.56,129.611 1274.73,115.111 1290,99.5C 1302,83.5 1314,67.5 1326,51.5C 1344.27,33.4407 1365.77,20.6073 1390.5,13C 1406.15,8.00751 1421.82,3.50751 1437.5,-0.5 Z"/></g>
</svg>
