<?xml version="1.0" encoding="UTF-8"?>
<!DOCTYPE svg PUBLIC "-//W3C//DTD SVG 1.1//EN" "http://www.w3.org/Graphics/SVG/1.1/DTD/svg11.dtd">
<svg xmlns="http://www.w3.org/2000/svg" version="1.1" width="1433px" height="220px" style="shape-rendering:geometricPrecision; text-rendering:geometricPrecision; image-rendering:optimizeQuality; fill-rule:evenodd; clip-rule:evenodd" xmlns:xlink="http://www.w3.org/1999/xlink">
<g><path style="opacity:0.999" fill="#ce0410" d="M 1257.5,-0.5 C 1269.83,-0.5 1282.17,-0.5 1294.5,-0.5C 1330.2,4.67793 1363.86,16.1779 1395.5,34C 1407.89,41.5224 1420.22,49.0224 1432.5,56.5C 1432.5,225.5 1432.5,394.5 1432.5,563.5C 1431.5,563.5 1430.5,563.5 1429.5,563.5C 1427.5,563.5 1425.5,563.5 1423.5,563.5C 1425.5,592.855 1425.5,622.188 1423.5,651.5C 1198.5,650.335 973.5,650.168 748.5,651C 747.167,650.667 745.833,650.333 744.5,650C 735.173,640.82 726.673,630.987 719,620.5C 714.678,615.167 709.512,611.001 703.5,608C 636.848,606.373 570.182,605.54 503.5,605.5C 337.833,606.687 172.167,606.687 6.5,605.5C 6.27842,591.478 6.61176,577.478 7.5,563.5C 5.5,563.5 3.5,563.5 1.5,563.5C 0.833333,563.5 0.166667,563.5 -0.5,563.5C -0.5,429.5 -0.5,295.5 -0.5,161.5C 41.7029,135.361 87.0362,127.861 135.5,139C 145.162,142.221 154.495,146.221 163.5,151C 186.152,169.339 210.819,184.672 237.5,197C 283.355,214.696 330.355,218.362 378.5,208C 406.419,202.236 434.419,196.902 462.5,192C 492.219,187.508 520.219,192.508 546.5,207C 580.188,218.392 614.188,219.392 648.5,210C 663.727,205.258 678.727,199.925 693.5,194C 739.648,170.76 785.981,147.76 832.5,125C 867.868,108.7 905.035,100.533 944,100.5C 983.161,102.189 1022.33,103.523 1061.5,104.5C 1089.02,103.954 1115.02,97.4535 1139.5,85C 1148.5,79.238 1156.67,72.4046 1164,64.5C 1170.33,56.1667 1176.67,47.8333 1183,39.5C 1203.4,17.8839 1228.23,4.55057 1257.5,-0.5 Z"/></g>
<g><path style="opacity:1" fill="#c40410" d="M -0.5,563.5 C 0.166667,563.5 0.833333,563.5 1.5,563.5C 1.33342,578.17 1.50009,592.837 2,607.5C 3.16667,608.667 4.33333,609.833 5.5,611C 234.167,610.896 462.833,610.896 691.5,611C 697.743,611.956 703.41,614.289 708.5,618C 716.711,627.209 724.544,636.709 732,646.5C 735.042,649.933 738.542,652.766 742.5,655C 970.833,655.667 1199.17,655.667 1427.5,655C 1428,654.5 1428.5,654 1429,653.5C 1429.21,630.82 1429.71,608.153 1430.5,585.5C 1429.65,578.191 1429.32,570.858 1429.5,563.5C 1430.5,563.5 1431.5,563.5 1432.5,563.5C 1432.5,593.167 1432.5,622.833 1432.5,652.5C 1431.02,654.807 1429.02,656.64 1426.5,658C 1199.17,658.667 971.833,658.667 744.5,658C 741.194,657.014 738.194,655.514 735.5,653.5C 735.5,652.833 735.167,652.5 734.5,652.5C 725.443,640.599 715.777,629.099 705.5,618C 703.283,616.725 700.949,615.725 698.5,615C 467.5,614.188 236.5,613.521 5.5,613C 2.85408,612.196 0.854084,610.696 -0.5,608.5C -0.5,593.5 -0.5,578.5 -0.5,563.5 Z"/></g>
<g><path style="opacity:1" fill="#cb0411" d="M 1.5,563.5 C 3.5,563.5 5.5,563.5 7.5,563.5C 6.61176,577.478 6.27842,591.478 6.5,605.5C 172.167,606.687 337.833,606.687 503.5,605.5C 570.182,605.54 636.848,606.373 703.5,608C 709.512,611.001 714.678,615.167 719,620.5C 726.673,630.987 735.173,640.82 744.5,650C 745.833,650.333 747.167,650.667 748.5,651C 973.5,650.168 1198.5,650.335 1423.5,651.5C 1425.5,622.188 1425.5,592.855 1423.5,563.5C 1425.5,563.5 1427.5,563.5 1429.5,563.5C 1429.32,570.858 1429.65,578.191 1430.5,585.5C 1429.71,608.153 1429.21,630.82 1429,653.5C 1428.5,654 1428,654.5 1427.5,655C 1199.17,655.667 970.833,655.667 742.5,655C 738.542,652.766 735.042,649.933 732,646.5C 724.544,636.709 716.711,627.209 708.5,618C 703.41,614.289 697.743,611.956 691.5,611C 462.833,610.896 234.167,610.896 5.5,611C 4.33333,609.833 3.16667,608.667 2,607.5C 1.50009,592.837 1.33342,578.17 1.5,563.5 Z"/></g>
<g><path style="opacity:0.999" fill="#be0310" d="M -0.5,608.5 C 0.854084,610.696 2.85408,612.196 5.5,613C 236.5,613.521 467.5,614.188 698.5,615C 700.949,615.725 703.283,616.725 705.5,618C 715.777,629.099 725.443,640.599 734.5,652.5C 723.834,641.692 713.501,630.525 703.5,619C 697.762,616.705 691.762,615.872 685.5,616.5C 679.5,616.5 673.5,616.5 667.5,616.5C 446.167,616.132 224.833,615.632 3.5,615C 2.01608,614.338 0.682751,613.504 -0.5,612.5C -0.5,611.167 -0.5,609.833 -0.5,608.5 Z"/></g>
<g><path style="opacity:1" fill="#b80310" d="M -0.5,612.5 C 0.682751,613.504 2.01608,614.338 3.5,615C 224.833,615.632 446.167,616.132 667.5,616.5C 447,617.666 226.334,617.833 5.5,617C 3.56429,616.187 1.56429,615.687 -0.5,615.5C -0.5,614.5 -0.5,613.5 -0.5,612.5 Z"/></g>
<g><path style="opacity:0.999" fill="#b2020f" d="M -0.5,615.5 C 1.56429,615.687 3.56429,616.187 5.5,617C 226.334,617.833 447,617.666 667.5,616.5C 673.5,616.5 679.5,616.5 685.5,616.5C 691.549,617.398 697.549,618.898 703.5,621C 711.333,630.167 719.167,639.333 727,648.5C 730.098,652.107 733.598,655.107 737.5,657.5C 738.749,659.136 740.416,660.303 742.5,661C 971.5,661.667 1200.5,661.667 1429.5,661C 1430.24,659.961 1431.24,659.461 1432.5,659.5C 1432.5,660.5 1432.5,661.5 1432.5,662.5C 1202.24,664.994 971.903,665.161 741.5,663C 737.187,661.694 733.687,659.194 731,655.5C 721.5,644.667 712,633.833 702.5,623C 700.043,621.438 697.376,620.438 694.5,620C 462.834,619.268 231.167,618.768 -0.5,618.5C -0.5,617.5 -0.5,616.5 -0.5,615.5 Z"/></g>
<g><path style="opacity:0.999" fill="#b80310" d="M 685.5,616.5 C 691.762,615.872 697.762,616.705 703.5,619C 713.501,630.525 723.834,641.692 734.5,652.5C 735.167,652.5 735.5,652.833 735.5,653.5C 735.733,655.062 736.4,656.395 737.5,657.5C 733.598,655.107 730.098,652.107 727,648.5C 719.167,639.333 711.333,630.167 703.5,621C 697.549,618.898 691.549,617.398 685.5,616.5 Z"/></g>
<g><path style="opacity:0.992" fill="#ab010e" d="M -0.5,619.5 C -0.5,619.167 -0.5,618.833 -0.5,618.5C 231.167,618.768 462.834,619.268 694.5,620C 697.376,620.438 700.043,621.438 702.5,623C 712,633.833 721.5,644.667 731,655.5C 733.687,659.194 737.187,661.694 741.5,663C 971.903,665.161 1202.24,664.994 1432.5,662.5C 1432.5,663.167 1432.5,663.833 1432.5,664.5C 1202.54,665.665 972.54,665.831 742.5,665C 739.106,663.925 735.772,662.758 732.5,661.5C 722.423,651.093 713.089,640.093 704.5,628.5C 702.579,625.413 699.913,623.246 696.5,622C 464.162,621.391 231.828,620.558 -0.5,619.5 Z"/></g>
<g><path style="opacity:0.995" fill="#a5020d" d="M -0.5,619.5 C 231.828,620.558 464.162,621.391 696.5,622C 699.913,623.246 702.579,625.413 704.5,628.5C 702.833,628.5 701.167,628.5 699.5,628.5C 699.64,626.876 698.973,625.71 697.5,625C 688.262,623.125 678.929,622.292 669.5,622.5C 446.149,623.822 222.816,623.822 -0.5,622.5C -0.5,621.5 -0.5,620.5 -0.5,619.5 Z"/></g>
<g><path style="opacity:0.796" fill="#9e020d" d="M -0.5,622.5 C 222.816,623.822 446.149,623.822 669.5,622.5C 678.929,622.292 688.262,623.125 697.5,625C 698.973,625.71 699.64,626.876 699.5,628.5C 466.167,628.5 232.833,628.5 -0.5,628.5C -0.5,626.5 -0.5,624.5 -0.5,622.5 Z"/></g>
<g><path style="opacity:1" fill="#be0310" d="M 1432.5,652.5 C 1432.5,654.167 1432.5,655.833 1432.5,657.5C 1430.23,658.423 1427.9,659.256 1425.5,660C 1198.83,660.667 972.167,660.667 745.5,660C 742.721,659.439 740.054,658.606 737.5,657.5C 736.4,656.395 735.733,655.062 735.5,653.5C 738.194,655.514 741.194,657.014 744.5,658C 971.833,658.667 1199.17,658.667 1426.5,658C 1429.02,656.64 1431.02,654.807 1432.5,652.5 Z"/></g>
<g><path style="opacity:1" fill="#b80310" d="M 737.5,657.5 C 740.054,658.606 742.721,659.439 745.5,660C 972.167,660.667 1198.83,660.667 1425.5,660C 1427.9,659.256 1430.23,658.423 1432.5,657.5C 1432.5,658.167 1432.5,658.833 1432.5,659.5C 1431.24,659.461 1430.24,659.961 1429.5,661C 1200.5,661.667 971.5,661.667 742.5,661C 740.416,660.303 738.749,659.136 737.5,657.5 Z"/></g>
<g><path style="opacity:0.999" fill="#a5010e" d="M 732.5,661.5 C 735.772,662.758 739.106,663.925 742.5,665C 972.54,665.831 1202.54,665.665 1432.5,664.5C 1432.5,665.5 1432.5,666.5 1432.5,667.5C 1200.48,667.828 968.483,667.495 736.5,666.5C 734.445,665.441 733.111,663.775 732.5,661.5 Z"/></g>
<g><path style="opacity:0.899" fill="#9f010e" d="M 736.5,666.5 C 968.483,667.495 1200.48,667.828 1432.5,667.5C 1432.5,669.167 1432.5,670.833 1432.5,672.5C 1201.83,672.5 971.167,672.5 740.5,672.5C 738.774,670.772 737.441,668.772 736.5,666.5 Z"/></g>
</svg>
